<svg xmlns="http://www.w3.org/2000/svg" viewBox="0 0 509.36 139.1"><defs><style>.cls-1{opacity:0.3;}.cls-2{fill:#fff;}</style></defs><title>Electus Logo</title><g id="Layer_2" data-name="Layer 2"><g id="Layer_1-2" data-name="Layer 1"><g class="cls-1"><path class="cls-2" d="M97.93,86.32a3,3,0,0,1-4.09,1.07c-9.43-5.54-7.21-15.1-4.63-26.17a102.19,102.19,0,0,0,3.13-19.29,23.85,23.85,0,0,0-2.21-10.74,35.35,35.35,0,0,0-7.19-10.27,45.44,45.44,0,0,0-3.47-3.17c-9-7.5-21.25-12-32.23-11.75-9.87.24-18.13,4.93-24.75,11.75a59.88,59.88,0,0,0-8,10.38A80.74,80.74,0,0,0,5.87,48,3,3,0,1,1,.11,46.36,82.33,82.33,0,0,1,14.53,17.8a.05.05,0,0,1,0-.05C22.63,7.73,33.51.35,47.09,0c14-.35,29.79,6.22,40.11,16.71.34.34.66.68,1,1,.68.73,1.34,1.48,1.95,2.24,5.62,6.9,8.5,14.64,8.2,22.18A107.43,107.43,0,0,1,95,62.58c-2.57,11-3.56,16.48,1.82,19.64A3,3,0,0,1,97.93,86.32Z"/><path class="cls-2" d="M48,139.1a2.88,2.88,0,0,1-1.1-.22A3,3,0,0,1,45.24,135l5.42-13.68a3,3,0,0,1,2.27-1.85,3,3,0,0,1,2.76,1c4.06,4.62,8.92,9,10.39,9.32a3,3,0,0,1-1.34,5.83c-2.94-.68-7.19-4.53-10.27-7.66l-3.66,9.26A3,3,0,0,1,48,139.1Z"/><path class="cls-2" d="M80.07,126.57a3,3,0,0,1-4,1.4A62.34,62.34,0,0,1,60.13,117a59.2,59.2,0,0,1-10.36-13l-4.08,13-5.36,17.1a3,3,0,0,1-2.85,2.11,2.72,2.72,0,0,1-.89-.14,3,3,0,0,1-2-3.75L39.42,117l5.82-18.58L46.32,95a3,3,0,0,1,2.83-2.09h0A3,3,0,0,1,52,95a31.87,31.87,0,0,0,1.56,3.48A54.23,54.23,0,0,0,69.48,117a55.76,55.76,0,0,0,9.2,5.54A3,3,0,0,1,80.07,126.57Z"/><path class="cls-2" d="M53.46,49.44,51,57.89,45.63,76.47l-6.38,22L33.88,117l-3.79,13a3,3,0,0,1-2.87,2.17,2.92,2.92,0,0,1-.83-.12,3,3,0,0,1-2.05-3.71L27.64,117,36.94,85l2.46-8.5,5.39-18.58,2.93-10.12a3,3,0,1,1,5.74,1.67Z"/><path class="cls-2" d="M89,119.16A3,3,0,0,1,85.21,121,46.62,46.62,0,0,1,77.33,117a47.19,47.19,0,0,1-10.75-8.89,62.45,62.45,0,0,1-6.94-9.69,41.09,41.09,0,0,1-5.85-22c.13-6.24,1.62-11.77,2.91-16.56.19-.69.37-1.36.54-2a32.24,32.24,0,0,0,1.47-9.16c-.24-5.89-4.54-7.16-6.37-7.43-3.57-.54-8.1,1-9.48,4.88-.67,1.93-2,6.17-3.7,11.71C33.88,75.18,25.09,105.13,21.6,117c-.9,3.1-1.45,5-1.48,5.08a3,3,0,0,1-2.87,2.16,2.94,2.94,0,0,1-.84-.12,3,3,0,0,1-2-3.71c.1-.33.45-1.53,1-3.41,3.93-13.44,18-61.53,21.57-72,.1-.31.19-.58.28-.82a13.52,13.52,0,0,1,7.85-7.86,15.57,15.57,0,0,1,8.16-.95,14.45,14.45,0,0,1,3.42.95c4.12,1.7,7.76,5.51,8,12.15a33.46,33.46,0,0,1-1.27,9.41c-.29,1.17-.61,2.37-.94,3.57-1.26,4.69-2.6,9.63-2.74,15-.19,6.55,1.38,13.76,6.93,22a62.52,62.52,0,0,0,4.43,5.77,44,44,0,0,0,16.12,11.1A3,3,0,0,1,89,119.16Z"/><path class="cls-2" d="M95.18,107.36a3,3,0,0,1-2.74,3.23h-.76c-2.26-.15-8.92-1.55-18.44-12.13-.5-.56-1-1.14-1.52-1.75-5.09-6-6.51-13.18-6.29-20.24.22-6.65,1.89-13.21,3.34-18.58.09-.34.19-.68.27-1,.69-2.53,1.33-4.92,1.69-6.83a15.61,15.61,0,0,0-4.2-13.72A24.88,24.88,0,0,0,55.8,29.8a19.3,19.3,0,0,0-15.28,1.25,12.6,12.6,0,0,0-6.4,7.87C33,43.47,31,49.67,28.8,56.23,26.45,63.36,24,70.72,22.42,77c-2.42,9.47-5,16.72-7.89,22a26.85,26.85,0,0,1-6.86,8.66A3,3,0,1,1,4,103c3.78-2.92,7.31-9.62,10.52-20,.71-2.31,1.41-4.79,2.09-7.46,1.66-6.46,4.11-13.93,6.49-21.14,2.12-6.46,4.12-12.55,5.19-16.88a18.59,18.59,0,0,1,9.3-11.66,25.31,25.31,0,0,1,20-1.73c7.36,2.36,13,6.79,16.28,12.23a21,21,0,0,1,2.71,14.83c-.39,2-1,4.29-1.64,6.73-.06.18-.11.37-.16.55-1.45,5.38-3.18,11.77-3.4,18-.22,5.91.9,11.7,4.86,16.37a61.11,61.11,0,0,0,5.35,5.62c5.54,5.08,9.09,6,10.05,6.14l.27,0h.24A3,3,0,0,1,95.18,107.36Z"/><path class="cls-2" d="M96.94,98.81a3,3,0,0,1-2.74,1.81,3,3,0,0,1-1.18-.24c-.44-.19-.88-.38-1.34-.61-.78-.38-1.61-.82-2.43-1.31A27.66,27.66,0,0,1,77.1,83.19a21.63,21.63,0,0,1-1-6.72c0-4.85,1.21-9.94,2.52-15.22.27-1.12.55-2.24.82-3.36,1.5-6.41,2.62-12.9.82-18.82-.29-1-.62-1.86-1-2.74C74.8,25.49,65.15,19.76,56.69,17.75a31.31,31.31,0,0,0-3.61-.65,24.22,24.22,0,0,0-8.35.65C36,19.82,26.34,25.83,23.45,33.3c-2.54,6.55-5.85,16.89-8.92,27C10,75.2,5.94,89.51,5.87,89.75a3,3,0,0,1-3.68,2.06A3,3,0,0,1,.11,88.13c.39-1.38,8.15-29,14.42-47.62,1.19-3.53,2.32-6.73,3.34-9.37,2.07-5.34,6.5-9.94,11.85-13.39,7.55-4.88,16.94-7.46,24.08-6.6a41,41,0,0,1,17.58,6.6A35.77,35.77,0,0,1,85.61,36.33c.12.33.22.66.33,1,2.37,7.81.72,16-1.06,23.35-.17.67-.34,1.34-.5,2C83.17,67.59,82,72.3,82.05,76.47a15.54,15.54,0,0,0,.73,4.82,22.05,22.05,0,0,0,12.6,13.58A3,3,0,0,1,96.94,98.81Z"/></g><path class="cls-2" d="M89.24,98.38c.82.5,1.64.93,2.43,1.31V98.38Z"/><path class="cls-2" d="M81.62,98.38H73.23c9.52,10.58,16.18,12,18.44,12.13v-6C90.71,104.36,87.16,103.47,81.62,98.38Z"/><path class="cls-2" d="M44.72,17.67c-8.79,2.07-18.39,8.09-21.28,15.55-2.54,6.55-5.85,16.89-8.92,27V40.43c1.19-3.52,2.32-6.73,3.34-9.36,2.07-5.35,6.5-9.95,11.85-13.4Z"/><path class="cls-2" d="M22.48,17.67a59.88,59.88,0,0,0-8,10.38V17.67Z"/><path class="cls-2" d="M39.15,57.81C33.87,75.1,25.08,105.06,21.59,117H15.35c3.94-13.44,18-61.53,21.58-72V57.81Z"/><polygon class="cls-2" points="39.24 98.38 33.87 116.96 27.63 116.96 36.93 84.9 36.93 98.38 39.24 98.38"/><polygon class="cls-2" points="51.01 57.81 45.62 76.39 39.39 76.39 44.77 57.81 51.01 57.81"/><path class="cls-2" d="M75,57.81l-.15.56c-1.45,5.37-3.18,11.76-3.4,18h-6c.22-6.65,1.89-13.21,3.34-18.58Z"/><path class="cls-2" d="M84.87,57.81V60.6c-.17.67-.34,1.34-.5,2C83.16,67.51,82,72.23,82,76.39h-6c0-4.85,1.21-9.94,2.51-15.22.28-1.12.56-2.24.83-3.36Z"/><path class="cls-2" d="M63.41,57.81c-.3,1.17-.61,2.37-.94,3.57-1.26,4.69-2.6,9.63-2.74,15H53.78c.13-6.23,1.62-11.77,2.91-16.56.19-.69.37-1.36.54-2Z"/><path class="cls-2" d="M57.62,24a25.38,25.38,0,0,0-20,1.73,18.6,18.6,0,0,0-9.29,11.66c-1.07,4.33-3.07,10.42-5.19,16.88C20.72,61.5,18.27,69,16.61,75.43q-1,4-2.09,7.47V99c2.88-5.31,5.47-12.56,7.89-22,1.61-6.28,4-13.64,6.38-20.77C30.94,49.59,33,43.39,34.1,38.84A12.67,12.67,0,0,1,40.51,31a19.29,19.29,0,0,1,15.28-1.25,24.8,24.8,0,0,1,10.73,6.54H73.9C70.65,30.81,65,26.38,57.62,24Z"/><path class="cls-2" d="M53.22,35.3a15.57,15.57,0,0,0-8.16,1H56.64A14.48,14.48,0,0,0,53.22,35.3Z"/><path class="cls-2" d="M71.37,17.67H56.68c8.46,2,18.11,7.74,22.55,18.59H85.6A35.83,35.83,0,0,0,71.37,17.67Z"/><path class="cls-2" d="M88.17,17.67H79.46a43.48,43.48,0,0,1,3.46,3.17,35.39,35.39,0,0,1,7.2,10.27V19.92C89.51,19.16,88.85,18.4,88.17,17.67Z"/><path class="cls-2" d="M69.47,117H60.12a59,59,0,0,1-10.36-13l-4.08,13H39.41l5.82-18.58h8.33A54.23,54.23,0,0,0,69.47,117Z"/><path class="cls-2" d="M89,117H77.32a46.71,46.71,0,0,1-10.75-8.89,62.45,62.45,0,0,1-6.94-9.69h7a62.52,62.52,0,0,0,4.43,5.77,43.87,43.87,0,0,0,16.12,11.1A3,3,0,0,1,89,117Z"/><path class="cls-2" d="M158,45v8.81H184.5V66.65H158v8.89h30V88.36h-46.7V32.2h45.9V45Z"/><path class="cls-2" d="M236.25,74.42V88.36H196V32.2H212.7V74.42Z"/><path class="cls-2" d="M258.69,45v8.81H285.2V66.65H258.69v8.89h30V88.36H242V32.2h45.9V45Z"/><path class="cls-2" d="M347,41.65,337.36,53c-3.53-4.49-8.74-7.45-13.38-7.45-7.61,0-13.38,6.17-13.38,14.42S316.37,74.5,324,74.5c4.32,0,9.53-2.56,13.38-6.49L347,78.26c-6.09,6.57-15.3,10.82-23.79,10.82-17.07,0-29.64-12.34-29.64-28.92,0-16.34,12.81-28.44,30.2-28.44A33,33,0,0,1,347,41.65Z"/><path class="cls-2" d="M380.78,45.5V88.36H364V45.5H347.77V32.2h49.35V45.5Z"/><path class="cls-2" d="M454.24,64.65c0,14.9-10.18,24.43-26.2,24.43s-26.59-9.53-26.59-24.43V32.2h16.66V64.65c0,6.48,4.41,10.49,10,10.49s9.46-3.93,9.46-10.49V32.2h16.66Z"/><path class="cls-2" d="M509.36,38l-6.17,12.82c-5.77-3.29-13.94-6.25-18.67-6.25-2.8,0-4.64,1-4.64,3,0,8.25,29.32,3.37,29.32,23.63,0,11.94-10.58,17.63-23.16,17.63-9.53,0-19.94-3.37-27-8.89l6.25-12.66c5.76,4.89,15.14,8.57,20.91,8.57,3.52,0,5.76-1.2,5.76-3.76,0-8.5-29.32-3.13-29.32-22.92,0-10.81,9.22-17.7,23.23-17.7C494.46,31.48,503.27,34,509.36,38Z"/><path class="cls-2" d="M149.94,101.07v11h-4.29v-11h-4.16v-3.4h12.63v3.4Z"/><path class="cls-2" d="M164.81,112v-5.35h-5.1V112h-4.26V97.67h4.26v5.71h5.1V97.67h4.27V112Z"/><path class="cls-2" d="M175.76,101v2.25h6.78v3.28h-6.78v2.27h7.68V112H171.49V97.67h11.75V101Z"/><path class="cls-2" d="M194.24,101v2.25H201v3.28h-6.78v2.27h7.69V112H190V97.67h11.74V101Z"/><path class="cls-2" d="M208.2,112l-5.5-14.36h4.55l3.28,9.94,3.28-9.94h4.37L212.62,112Z"/><path class="cls-2" d="M234.12,104.84c0,4.22-3.32,7.38-7.83,7.38s-7.83-3.14-7.83-7.38,3.32-7.3,7.83-7.3S234.12,100.64,234.12,104.84Zm-11.29,0a3.66,3.66,0,0,0,3.52,3.79,3.56,3.56,0,0,0,3.4-3.79,3.52,3.52,0,0,0-3.4-3.75A3.61,3.61,0,0,0,222.83,104.86Z"/><path class="cls-2" d="M246,108.47V112H235.72V97.67H240v10.8Z"/><path class="cls-2" d="M260.76,106c0,3.81-2.6,6.25-6.7,6.25s-6.81-2.44-6.81-6.25v-8.3h4.27V106a2.5,2.5,0,0,0,2.56,2.68A2.4,2.4,0,0,0,256.5,106v-8.3h4.26Z"/><path class="cls-2" d="M270.31,101.07v11H266v-11h-4.16v-3.4h12.62v3.4Z"/><path class="cls-2" d="M275.82,112V97.67h4.26V112Z"/><path class="cls-2" d="M297.34,104.84c0,4.22-3.32,7.38-7.83,7.38s-7.83-3.14-7.83-7.38,3.32-7.3,7.83-7.3S297.34,100.64,297.34,104.84Zm-11.29,0a3.66,3.66,0,0,0,3.52,3.79,3.56,3.56,0,0,0,3.4-3.79,3.52,3.52,0,0,0-3.4-3.75A3.61,3.61,0,0,0,286.05,104.86Z"/><path class="cls-2" d="M308.94,112l-6.09-8v8h-3.91V97.67h3.65l6.08,8v-8h3.89V112Z"/><path class="cls-2" d="M334.31,104.84c0,4.22-3.32,7.38-7.83,7.38s-7.83-3.14-7.83-7.38,3.32-7.3,7.83-7.3S334.31,100.64,334.31,104.84Zm-11.29,0a3.66,3.66,0,0,0,3.52,3.79,3.56,3.56,0,0,0,3.4-3.79,3.52,3.52,0,0,0-3.4-3.75A3.6,3.6,0,0,0,323,104.86Z"/><path class="cls-2" d="M340.17,101v2.87h6.39v3.27h-6.39V112h-4.26V97.67h11.14V101Z"/><path class="cls-2" d="M366.13,104.59v5.78a12,12,0,0,1-6.15,1.85c-4.44,0-7.72-3.14-7.72-7.36s3.38-7.32,8-7.32a9.6,9.6,0,0,1,6.07,2.18l-2.42,2.93a5.59,5.59,0,0,0-3.67-1.56,3.78,3.78,0,0,0,0,7.56,5.63,5.63,0,0,0,2.17-.55v-3.51Z"/><path class="cls-2" d="M383.08,104.84c0,4.22-3.32,7.38-7.83,7.38s-7.83-3.14-7.83-7.38,3.32-7.3,7.83-7.3S383.08,100.64,383.08,104.84Zm-11.29,0a3.66,3.66,0,0,0,3.52,3.79,3.56,3.56,0,0,0,3.4-3.79,3.52,3.52,0,0,0-3.4-3.75A3.61,3.61,0,0,0,371.79,104.86Z"/><path class="cls-2" d="M388.7,112l-5.5-14.36h4.55l3.28,9.94,3.28-9.94h4.36L393.12,112Z"/><path class="cls-2" d="M404.06,101v2.25h6.79v3.28h-6.79v2.27h7.69V112H399.8V97.67h11.74V101Z"/><path class="cls-2" d="M420.31,108.16h-2.25V112H413.8V97.67h6.7c3.85,0,6.07,1.84,6.07,5.1a4.91,4.91,0,0,1-2.42,4.57l2.91,4.69h-4.84Zm.19-3.28a1.81,1.81,0,0,0,2-2,1.79,1.79,0,0,0-2-1.94h-2.44v3.93Z"/><path class="cls-2" d="M438.66,112l-6.09-8v8h-3.91V97.67h3.64l6.09,8v-8h3.89V112Z"/><path class="cls-2" d="M448.57,109.74l-.86,2.29h-4.38l6.13-14.36h4.38L459.76,112h-4.55l-.84-2.29Zm3-7.81-1.77,4.69h3.49Z"/><path class="cls-2" d="M470.81,112l-6.09-8v8h-3.91V97.67h3.65l6.08,8v-8h3.9V112Z"/><path class="cls-2" d="M489.7,100.09,487.24,103a4.67,4.67,0,0,0-3.42-1.91,3.71,3.71,0,0,0,0,7.4,5.2,5.2,0,0,0,3.42-1.66l2.46,2.62a8.67,8.67,0,0,1-6.08,2.77,7.29,7.29,0,0,1-7.59-7.4c0-4.18,3.28-7.28,7.73-7.28A8.43,8.43,0,0,1,489.7,100.09Z"/><path class="cls-2" d="M495.26,101v2.25H502v3.28h-6.78v2.27h7.68V112H491V97.67h11.75V101Z"/></g></g></svg>